<?xml version="1.0" encoding="UTF-8"?>
<svg version="1.1" xmlns="http://www.w3.org/2000/svg" width="256" height="256">
<path d="M0 0 C16.5 0 33 0 50 0 C48.86696091 5.66519546 48.86696091 5.66519546 46.0625 8.8125 C45.53785156 9.41707031 45.01320312 10.02164063 44.47265625 10.64453125 C43 12 43 12 41 12 C40.835 12.680625 40.67 13.36125 40.5 14.0625 C38.27815221 18.41361859 34.70526257 20.90391987 31 24 C27.56438338 27.27201583 24.48429517 30.74133756 21.41796875 34.3515625 C19.70051779 36.34815838 17.96574204 38.24487318 16 40 C15.34 40 14.68 40 14 40 C13.731875 40.639375 13.46375 41.27875 13.1875 41.9375 C12 44 12 44 9 45 C9 45.66 9 46.32 9 47 C8.34 47 7.68 47 7 47 C7 47.66 7 48.32 7 49 C6.34 49 5.68 49 5 49 C4.731875 49.639375 4.46375 50.27875 4.1875 50.9375 C3 53 3 53 0 54 C0 54.66 0 55.32 0 56 C-0.66 56 -1.32 56 -2 56 C-2 56.66 -2 57.32 -2 58 C-2.66 58 -3.32 58 -4 58 C-4.268125 58.639375 -4.53625 59.27875 -4.8125 59.9375 C-6 62 -6 62 -9 63 C-9 63.66 -9 64.32 -9 65 C-9.66 65 -10.32 65 -11 65 C-11 65.66 -11 66.32 -11 67 C-11.66 67 -12.32 67 -13 67 C-13.268125 67.639375 -13.53625 68.27875 -13.8125 68.9375 C-15 71 -15 71 -18 72 C-18 72.66 -18 73.32 -18 74 C-20.73955562 77.04395069 -23.18063472 79.44396229 -27 81 C-27 81.66 -27 82.32 -27 83 C-28.29233607 84.37310707 -29.62437146 85.71034824 -31 87 C-30.02947189 87.01030746 -29.05894379 87.02061493 -28.05900574 87.03123474 C-18.92115171 87.1289107 -9.78336666 87.2316393 -0.64562511 87.33933926 C4.05238812 87.39454827 8.7504076 87.4479651 13.44848633 87.49731445 C17.98077035 87.54498774 22.51297838 87.59733172 27.04517174 87.65294075 C28.77593791 87.67335085 30.5067249 87.69206616 32.23752785 87.70907402 C34.65818447 87.73314776 37.07869754 87.7631983 39.49926758 87.79467773 C40.57712524 87.80331093 40.57712524 87.80331093 41.67675781 87.81211853 C44.71904314 87.85721107 47.09013349 88.0300445 50 89 C50 117.38 50 145.76 50 175 C33.5 175 17 175 0 175 C-0.33 160.48 -0.66 145.96 -1 131 C-7.25710937 131.02320313 -13.51421875 131.04640625 -19.9609375 131.0703125 C-23.91667079 131.08052734 -27.87238791 131.09015496 -31.828125 131.09765625 C-38.11168785 131.1096281 -44.39519261 131.12381527 -50.67871094 131.15087891 C-55.74261742 131.17255395 -60.80646164 131.18455732 -65.87041092 131.18975449 C-67.80578212 131.19345987 -69.74114979 131.20069519 -71.6764946 131.21146011 C-74.37994597 131.22590414 -77.08313756 131.22798093 -79.78662109 131.22705078 C-80.59294479 131.23424133 -81.39926849 131.24143188 -82.23002625 131.24884033 C-87.77189568 131.22810432 -87.77189568 131.22810432 -90 129 C-90.17539436 126.05903263 -90.23132375 123.21346651 -90.1953125 120.2734375 C-90.1924826 119.41062164 -90.18965271 118.54780579 -90.18673706 117.65884399 C-90.17552333 114.8974228 -90.15041684 112.1363235 -90.125 109.375 C-90.11497173 107.50521301 -90.10584562 105.63542095 -90.09765625 103.765625 C-90.07558012 99.17695891 -90.04104234 94.58853407 -90 90 C-89.34 90 -88.68 90 -88 90 C-88 89.34 -88 88.68 -88 88 C-86.625 86.375 -86.625 86.375 -85 85 C-84.34 85 -83.68 85 -83 85 C-83 84.34 -83 83.68 -83 83 C-80.525 82.01 -80.525 82.01 -78 81 C-78 80.34 -78 79.68 -78 79 C-77.34 79 -76.68 79 -76 79 C-76 78.01 -76 77.02 -76 76 C-75.34 76 -74.68 76 -74 76 C-74 75.34 -74 74.68 -74 74 C-73.01 74 -72.02 74 -71 74 C-71 73.34 -71 72.68 -71 72 C-70.34 72 -69.68 72 -69 72 C-69 71.34 -69 70.68 -69 70 C-68.34 70 -67.68 70 -67 70 C-67 69.01 -67 68.02 -67 67 C-66.34 67 -65.68 67 -65 67 C-65 66.34 -65 65.68 -65 65 C-64.01 65 -63.02 65 -62 65 C-62 64.34 -62 63.68 -62 63 C-61.34 63 -60.68 63 -60 63 C-60 62.34 -60 61.68 -60 61 C-59.34 61 -58.68 61 -58 61 C-58 60.01 -58 59.02 -58 58 C-57.34 58 -56.68 58 -56 58 C-56 57.34 -56 56.68 -56 56 C-54.35 55.34 -52.7 54.68 -51 54 C-51 53.34 -51 52.68 -51 52 C-50.34 52 -49.68 52 -49 52 C-48.773125 51.21625 -48.54625 50.4325 -48.3125 49.625 C-47 47 -47 47 -44.375 45.6875 C-43.59125 45.460625 -42.8075 45.23375 -42 45 C-42 44.34 -42 43.68 -42 43 C-41.34 43 -40.68 43 -40 43 C-39.773125 42.21625 -39.54625 41.4325 -39.3125 40.625 C-38 38 -38 38 -35.375 36.6875 C-34.59125 36.460625 -33.8075 36.23375 -33 36 C-33 35.34 -33 34.68 -33 34 C-32.34 34 -31.68 34 -31 34 C-30.773125 33.21625 -30.54625 32.4325 -30.3125 31.625 C-29 29 -29 29 -26.375 27.6875 C-25.59125 27.460625 -24.8075 27.23375 -24 27 C-24 26.34 -24 25.68 -24 25 C-23.34 25 -22.68 25 -22 25 C-21.773125 24.21625 -21.54625 23.4325 -21.3125 22.625 C-20 20 -20 20 -17.375 18.6875 C-16.59125 18.460625 -15.8075 18.23375 -15 18 C-15 17.34 -15 16.68 -15 16 C-14.34 16 -13.68 16 -13 16 C-12.773125 15.21625 -12.54625 14.4325 -12.3125 13.625 C-11 11 -11 11 -8.375 9.6875 C-7.59125 9.460625 -6.8075 9.23375 -6 9 C-6 8.34 -6 7.68 -6 7 C-5.34 7 -4.68 7 -4 7 C-3.34 5.35 -2.68 3.7 -2 2 C-1.34 2 -0.68 2 0 2 C0 1.34 0 0.68 0 0 Z " fill="#010101" transform="translate(95,37)"/>
<path d="M0 0 C3.01472745 -0.29136732 5.82361643 -0.38838726 8.84008789 -0.35644531 C9.75560928 -0.35848969 10.67113068 -0.36053406 11.61439514 -0.36264038 C14.65068312 -0.36565673 17.68643253 -0.34714697 20.72265625 -0.328125 C22.82490403 -0.32506902 24.92715382 -0.32319167 27.02940369 -0.32244873 C31.43870775 -0.31784043 35.84782971 -0.30339335 40.25708008 -0.28125 C45.92249948 -0.25294988 51.58777534 -0.24203743 57.25325871 -0.2375679 C61.59481761 -0.23342059 65.93634718 -0.22360918 70.27789116 -0.21169281 C72.36758627 -0.20597678 74.45728424 -0.20122252 76.54698372 -0.19742584 C79.46114235 -0.19058703 82.37518479 -0.1769665 85.28930664 -0.16113281 C86.1615387 -0.16001495 87.03377075 -0.15889709 87.93243408 -0.15774536 C93.88531413 -0.11468587 93.88531413 -0.11468587 95 1 C95.09319449 2.5348297 95.117458 4.07392082 95.11352539 5.61157227 C95.11341209 7.08298424 95.11341209 7.08298424 95.11329651 8.5841217 C95.10813522 9.6507756 95.10297394 10.7174295 95.09765625 11.81640625 C95.0962413 12.9025975 95.09482635 13.98878876 95.09336853 15.1078949 C95.08775048 18.59279075 95.07519492 22.07762342 95.0625 25.5625 C95.05748733 27.91861887 95.05292402 30.27473874 95.04882812 32.63085938 C95.03777519 38.42059464 95.02101951 44.21029281 95 50 C94.34 50 93.68 50 93 50 C93 50.66 93 51.32 93 52 C92.34 52 91.68 52 91 52 C90.731875 52.639375 90.46375 53.27875 90.1875 53.9375 C89 56 89 56 86 57 C86 57.66 86 58.32 86 59 C85.34 59 84.68 59 84 59 C84 59.66 84 60.32 84 61 C83.34 61 82.68 61 82 61 C81.34 62.32 80.68 63.64 80 65 C79.01 65 78.02 65 77 65 C77 65.66 77 66.32 77 67 C75.625 68.625 75.625 68.625 74 70 C73.34 70 72.68 70 72 70 C72 70.66 72 71.32 72 72 C71.34 72 70.68 72 70 72 C70 72.66 70 73.32 70 74 C69.34 74 68.68 74 68 74 C68 74.66 68 75.32 68 76 C66.625 77.625 66.625 77.625 65 79 C64.34 79 63.68 79 63 79 C63 79.66 63 80.32 63 81 C62.34 81 61.68 81 61 81 C61 81.66 61 82.32 61 83 C60.34 83 59.68 83 59 83 C59 83.66 59 84.32 59 85 C57.625 86.625 57.625 86.625 56 88 C55.34 88 54.68 88 54 88 C54 88.66 54 89.32 54 90 C53.34 90 52.68 90 52 90 C52 90.66 52 91.32 52 92 C51.34 92 50.68 92 50 92 C50.33 103.88 50.66 115.76 51 128 C51.33 127.34 51.66 126.68 52 126 C52.66 126 53.32 126 54 126 C54 125.34 54 124.68 54 124 C55.375 122.375 55.375 122.375 57 121 C57.66 121 58.32 121 59 121 C59 120.34 59 119.68 59 119 C59.66 119 60.32 119 61 119 C61 118.34 61 117.68 61 117 C61.66 117 62.32 117 63 117 C63 116.34 63 115.68 63 115 C64.375 113.375 64.375 113.375 66 112 C66.66 112 67.32 112 68 112 C68 111.34 68 110.68 68 110 C68.66 110 69.32 110 70 110 C70 109.34 70 108.68 70 108 C70.66 108 71.32 108 72 108 C72 107.34 72 106.68 72 106 C74.375 103.375 74.375 103.375 77 101 C77.66 101 78.32 101 79 101 C79 100.34 79 99.68 79 99 C79.66 99 80.32 99 81 99 C81 98.34 81 97.68 81 97 C83.375 94.375 83.375 94.375 86 92 C86.66 92 87.32 92 88 92 C88 91.34 88 90.68 88 90 C89.9914056 89.61866701 91.99279077 89.28674418 94 89 C95.59654334 90.59654334 95.14324913 92.27625061 95.16113281 94.48803711 C95.17074036 95.44250229 95.1803479 96.39696747 95.19024658 97.38035583 C95.19449646 98.41886185 95.19874634 99.45736786 95.203125 100.52734375 C95.20882507 101.58659561 95.21452515 102.64584747 95.22039795 103.73719788 C95.22986365 105.98258459 95.23638813 108.2279853 95.24023438 110.47338867 C95.24994884 113.91935269 95.28096153 117.36472279 95.3125 120.81054688 C95.3190287 122.98697561 95.32427969 125.16340862 95.328125 127.33984375 C95.3404718 128.37632553 95.3528186 129.41280731 95.36553955 130.48069763 C95.36253845 131.43831497 95.35953735 132.39593231 95.35644531 133.38256836 C95.36191376 134.65045448 95.36191376 134.65045448 95.36749268 135.94395447 C95.24622009 136.62244949 95.12494751 137.30094452 95 138 C91.13296497 140.57802335 87.92963254 140.2881069 83.4453125 140.2746582 C82.13515167 140.2823246 82.13515167 140.2823246 80.79852295 140.29014587 C77.90727922 140.30406224 75.01627327 140.30308375 72.125 140.30078125 C70.11865144 140.30466669 68.1123037 140.30900105 66.10595703 140.31376648 C61.89938694 140.32123283 57.69290078 140.32093414 53.48632812 140.31567383 C48.08894769 140.30987479 42.69190993 140.32681874 37.29458618 140.3500185 C33.15110253 140.36473063 29.00770192 140.36563105 24.86419678 140.36250877 C22.87383342 140.36302313 20.88346555 140.36828218 18.89312744 140.37832069 C16.11341896 140.39062072 13.33438472 140.38393258 10.5546875 140.37231445 C9.72862 140.37995819 8.90255249 140.38760193 8.05145264 140.39547729 C2.41044761 140.34321242 2.41044761 140.34321242 0.32766724 138.60161114 C-1.86326919 135.95860836 -2.12356723 134.27145322 -2.11352539 130.91748047 C-2.11344986 130.07675995 -2.11337433 129.23603943 -2.11329651 128.36984253 C-2.10813522 127.46146637 -2.10297394 126.55309021 -2.09765625 125.6171875 C-2.0962413 124.68778351 -2.09482635 123.75837952 -2.09336853 122.80081177 C-2.08776053 119.82550876 -2.07520668 116.85028036 -2.0625 113.875 C-2.05748603 111.86067817 -2.05292295 109.84635516 -2.04882812 107.83203125 C-2.0377885 102.88799198 -2.02051849 97.94400865 -2 93 C-1.34 93 -0.68 93 0 93 C0 91.35 0 89.7 0 88 C1.98 87.505 1.98 87.505 4 87 C4 86.34 4 85.68 4 85 C4.66 85 5.32 85 6 85 C6.268125 84.360625 6.53625 83.72125 6.8125 83.0625 C8 81 8 81 11 80 C11 79.34 11 78.68 11 78 C11.66 78 12.32 78 13 78 C13 77.34 13 76.68 13 76 C13.66 76 14.32 76 15 76 C15.495 74.515 15.495 74.515 16 73 C16.66 73 17.32 73 18 73 C18 72.34 18 71.68 18 71 C18.66 71 19.32 71 20 71 C20 70.34 20 69.68 20 69 C20.66 69 21.32 69 22 69 C22 68.34 22 67.68 22 67 C22.66 67 23.32 67 24 67 C24 66.34 24 65.68 24 65 C25.375 63.375 25.375 63.375 27 62 C27.66 62 28.32 62 29 62 C29 61.34 29 60.68 29 60 C29.66 60 30.32 60 31 60 C31 59.34 31 58.68 31 58 C31.66 58 32.32 58 33 58 C33 57.34 33 56.68 33 56 C34.375 54.375 34.375 54.375 36 53 C36.66 53 37.32 53 38 53 C38 52.34 38 51.68 38 51 C38.66 51 39.32 51 40 51 C40 50.34 40 49.68 40 49 C40.66 49 41.32 49 42 49 C42.33 37.12 42.66 25.24 43 13 C42.34 13 41.68 13 41 13 C40.67 13.99 40.34 14.98 40 16 C39.34 16 38.68 16 38 16 C38 16.66 38 17.32 38 18 C37.34 18 36.68 18 36 18 C36 18.66 36 19.32 36 20 C35.34 20 34.68 20 34 20 C34 20.66 34 21.32 34 22 C33.34 22 32.68 22 32 22 C31.505 23.485 31.505 23.485 31 25 C30.34 25 29.68 25 29 25 C29 25.66 29 26.32 29 27 C28.34 27 27.68 27 27 27 C27 27.66 27 28.32 27 29 C26.34 29 25.68 29 25 29 C25 29.66 25 30.32 25 31 C24.34 31 23.68 31 23 31 C22.67 31.99 22.34 32.98 22 34 C21.34 34 20.68 34 20 34 C20 34.66 20 35.32 20 36 C19.34 36 18.68 36 18 36 C18 36.66 18 37.32 18 38 C17.34 38 16.68 38 16 38 C16 38.66 16 39.32 16 40 C15.34 40 14.68 40 14 40 C13.67 40.99 13.34 41.98 13 43 C12.34 43 11.68 43 11 43 C11 43.66 11 44.32 11 45 C10.34 45 9.68 45 9 45 C9 45.66 9 46.32 9 47 C8.34 47 7.68 47 7 47 C7 47.99 7 48.98 7 50 C5.68 50 4.36 50 3 50 C3 50.66 3 51.32 3 52 C1.35 51.34 -0.3 50.68 -2 50 C-2.05064489 43.36144258 -2.08571023 36.72293486 -2.10986328 30.08422852 C-2.11993058 27.82509499 -2.13358538 25.56597453 -2.15087891 23.30688477 C-2.17509508 20.06263001 -2.18647575 16.81854729 -2.1953125 13.57421875 C-2.20563507 12.56163498 -2.21595764 11.54905121 -2.22659302 10.50578308 C-2.22674408 9.56503433 -2.22689514 8.62428558 -2.22705078 7.6550293 C-2.231492 6.82674118 -2.23593323 5.99845306 -2.24050903 5.14506531 C-2 3 -2 3 0 0 Z " fill="#040404" transform="translate(158,37)"/>
<path d="M0 0 C0.99 0 1.98 0 3 0 C3 14.85 3 29.7 3 45 C-11.52 45 -26.04 45 -41 45 C-34.25460483 37.13037231 -34.25460483 37.13037231 -31.21362305 34.14770508 C-30.53659836 33.480439 -29.85957367 32.81317291 -29.16203308 32.12568665 C-28.45242935 31.43065536 -27.74282562 30.73562408 -27.01171875 30.01953125 C-25.48604505 28.51135402 -23.96066279 27.00288191 -22.43554688 25.49414062 C-20.05097677 23.14065752 -17.66415289 20.78960128 -15.2722168 18.44360352 C-12.94950572 16.16310199 -10.63624495 13.87335768 -8.32421875 11.58203125 C-7.60449387 10.88092728 -6.88476898 10.1798233 -6.14323425 9.45747375 C-5.48197037 8.79966415 -4.82070648 8.14185455 -4.1394043 7.46411133 C-3.55571579 6.89010086 -2.97202728 6.31609039 -2.37065125 5.72468567 C-0.85636919 3.81926986 -0.40512183 2.37841452 0 0 Z " fill="#000000" transform="translate(250,127)"/>
<path d="M0 0 C0.33 0.99 0.66 1.98 1 3 C0.34 3 -0.32 3 -1 3 C-1 3.66 -1 4.32 -1 5 C-1.66 5 -2.32 5 -3 5 C-3.92923977 7.78771931 -4.14867338 9.58234248 -4.20532227 12.47143555 C-4.23559509 13.84132629 -4.23559509 13.84132629 -4.26647949 15.2388916 C-4.28295532 16.19517456 -4.29943115 17.15145752 -4.31640625 18.13671875 C-4.33505737 19.01831665 -4.3537085 19.89991455 -4.3729248 20.80822754 C-4.44121944 24.10121648 -4.50137012 27.39437026 -4.5625 30.6875 C-4.706875 38.050625 -4.85125 45.41375 -5 53 C11.17 53 27.34 53 44 53 C44 52.34 44 51.68 44 51 C43.01 51 42.02 51 41 51 C41 37.8 41 24.6 41 11 C41.99 10.67 42.98 10.34 44 10 C44.33 21.55 44.66 33.1 45 45 C45.495 44.01 45.495 44.01 46 43 C46.66 43 47.32 43 48 43 C48 42.34 48 41.68 48 41 C49.375 39.375 49.375 39.375 51 38 C51.66 38 52.32 38 53 38 C53 37.34 53 36.68 53 36 C53.66 36 54.32 36 55 36 C55 35.34 55 34.68 55 34 C55.66 34 56.32 34 57 34 C57 33.34 57 32.68 57 32 C58.375 30.375 58.375 30.375 60 29 C60.66 29 61.32 29 62 29 C62 28.34 62 27.68 62 27 C62.66 27 63.32 27 64 27 C64 26.34 64 25.68 64 25 C64.66 25 65.32 25 66 25 C66 24.34 66 23.68 66 23 C68.375 20.375 68.375 20.375 71 18 C71.66 18 72.32 18 73 18 C73 17.34 73 16.68 73 16 C73.66 16 74.32 16 75 16 C75 15.34 75 14.68 75 14 C77.375 11.375 77.375 11.375 80 9 C80.66 9 81.32 9 82 9 C82 8.34 82 7.68 82 7 C84.97 6.505 84.97 6.505 88 6 C87.34 6.33 86.68 6.66 86 7 C85.86993057 7.76007858 85.73986115 8.52015717 85.60585022 9.30326843 C84.86381663 12.60617293 83.69987152 13.78501429 81.30639648 16.14770508 C80.52566269 16.92813675 79.74492889 17.70856842 78.9405365 18.51264954 C78.09262039 19.3399205 77.24470428 20.16719147 76.37109375 21.01953125 C75.50686295 21.87810226 74.64263214 22.73667328 73.75221252 23.6212616 C70.98988468 26.36120006 68.21397396 29.08690446 65.4375 31.8125 C63.5622396 33.66769895 61.68787914 35.52380803 59.81445312 37.38085938 C55.22161183 41.93300203 50.6106742 46.46564041 46 51 C60.19 51.33 74.38 51.66 89 52 C88.67 53.32 88.34 54.64 88 56 C84.73930865 57.63034567 81.14258014 57.1563042 77.55883789 57.16113281 C76.2488961 57.16858017 76.2488961 57.16858017 74.91249084 57.17617798 C72.01587138 57.19081539 69.11930666 57.19760367 66.22265625 57.203125 C64.21487933 57.20887446 62.20710243 57.21463222 60.19932556 57.22039795 C55.98680362 57.23091196 51.7743008 57.23675224 47.56176758 57.24023438 C42.15653447 57.24572471 36.75155257 57.26976259 31.34639835 57.29820633 C27.19863642 57.31680204 23.05093541 57.32203663 18.9031353 57.32357025 C16.90997377 57.32660347 14.91681348 57.33465438 12.9236927 57.34775543 C10.1391177 57.36475446 7.35516205 57.36295099 4.57055664 57.35644531 C3.32909882 57.37026749 3.32909882 57.37026749 2.06256104 57.3843689 C-3.58973741 57.3428683 -3.58973741 57.3428683 -5.67275333 55.60203171 C-7.86286616 52.9584913 -8.12356727 51.27146834 -8.11352539 47.91748047 C-8.11344986 47.07675995 -8.11337433 46.23603943 -8.11329651 45.36984253 C-8.10813522 44.46146637 -8.10297394 43.55309021 -8.09765625 42.6171875 C-8.0962413 41.68778351 -8.09482635 40.75837952 -8.09336853 39.80081177 C-8.08776053 36.82550876 -8.07520668 33.85028036 -8.0625 30.875 C-8.05748603 28.86067817 -8.05292295 26.84635516 -8.04882812 24.83203125 C-8.0377885 19.88799198 -8.02051849 14.94400865 -8 10 C-7.34 10 -6.68 10 -6 10 C-6 8.35 -6 6.7 -6 5 C-4.68 4.67 -3.36 4.34 -2 4 C-2 3.34 -2 2.68 -2 2 C-1.34 2 -0.68 2 0 2 C0 1.34 0 0.68 0 0 Z " fill="#191919" transform="translate(164,120)"/>
<path d="M0 0 C3.02026451 -0.28605123 5.83452484 -0.37795795 8.85595703 -0.34057617 C10.23164856 -0.34123329 10.23164856 -0.34123329 11.63513184 -0.34190369 C14.67623957 -0.33980832 17.7168007 -0.31644202 20.7578125 -0.29296875 C22.86245421 -0.28737546 24.96709982 -0.2831041 27.07174683 -0.28010559 C32.61865979 -0.26863584 38.16533812 -0.23915031 43.7121582 -0.20599365 C49.36927109 -0.17533865 55.02642179 -0.16161004 60.68359375 -0.14648438 C71.78916574 -0.11428268 82.89456338 -0.06306061 94 0 C94.495 1.485 94.495 1.485 95 3 C63.98 3 32.96 3 1 3 C1 17.85 1 32.7 1 48 C1.99 48 2.98 48 4 48 C4 47.34 4 46.68 4 46 C4.66 46 5.32 46 6 46 C6.66 44.68 7.32 43.36 8 42 C8.99 42 9.98 42 11 42 C11 41.34 11 40.68 11 40 C11.66 40 12.32 40 13 40 C13 39.01 13 38.02 13 37 C13.66 37 14.32 37 15 37 C15 36.34 15 35.68 15 35 C15.66 35 16.32 35 17 35 C17 34.34 17 33.68 17 33 C17.99 33 18.98 33 20 33 C20 32.34 20 31.68 20 31 C20.66 31 21.32 31 22 31 C22 30.01 22 29.02 22 28 C22.66 28 23.32 28 24 28 C24 27.34 24 26.68 24 26 C24.66 26 25.32 26 26 26 C26 25.34 26 24.68 26 24 C26.99 24 27.98 24 29 24 C29.66 22.68 30.32 21.36 31 20 C31.99 20 32.98 20 34 20 C34 20.66 34 21.32 34 22 C33.34 22 32.68 22 32 22 C31.505 23.485 31.505 23.485 31 25 C30.34 25 29.68 25 29 25 C29 25.66 29 26.32 29 27 C28.34 27 27.68 27 27 27 C27 27.66 27 28.32 27 29 C26.34 29 25.68 29 25 29 C25 29.66 25 30.32 25 31 C24.34 31 23.68 31 23 31 C22.67 31.99 22.34 32.98 22 34 C21.34 34 20.68 34 20 34 C20 34.66 20 35.32 20 36 C19.34 36 18.68 36 18 36 C18 36.66 18 37.32 18 38 C17.34 38 16.68 38 16 38 C16 38.66 16 39.32 16 40 C15.34 40 14.68 40 14 40 C13.67 40.99 13.34 41.98 13 43 C12.34 43 11.68 43 11 43 C11 43.66 11 44.32 11 45 C10.34 45 9.68 45 9 45 C9 45.66 9 46.32 9 47 C8.34 47 7.68 47 7 47 C7 47.99 7 48.98 7 50 C5.68 50 4.36 50 3 50 C3 50.66 3 51.32 3 52 C1.35 51.34 -0.3 50.68 -2 50 C-2.05064489 43.36144258 -2.08571023 36.72293486 -2.10986328 30.08422852 C-2.11993058 27.82509499 -2.13358538 25.56597453 -2.15087891 23.30688477 C-2.17509508 20.06263001 -2.18647575 16.81854729 -2.1953125 13.57421875 C-2.20563507 12.56163498 -2.21595764 11.54905121 -2.22659302 10.50578308 C-2.22674408 9.56503433 -2.22689514 8.62428558 -2.22705078 7.6550293 C-2.231492 6.82674118 -2.23593323 5.99845306 -2.24050903 5.14506531 C-2 3 -2 3 0 0 Z " fill="#222222" transform="translate(158,37)"/>
<path d="M0 0 C11.830381 -0.02313347 23.66075665 -0.04092023 35.49115562 -0.05181217 C40.98402071 -0.05703879 46.47687036 -0.06413246 51.96972656 -0.07543945 C57.26704689 -0.08627614 62.56435234 -0.09227851 67.86168289 -0.09487724 C69.88636128 -0.09673007 71.91103882 -0.10034799 73.93571091 -0.10573006 C76.76363661 -0.11295083 79.59150021 -0.1139905 82.41943359 -0.11352539 C83.26316025 -0.11712067 84.1068869 -0.12071594 84.97618103 -0.12442017 C90.77189568 -0.11405216 90.77189568 -0.11405216 93 1 C93 16.51 93 32.02 93 48 C92.01 48 91.02 48 90 48 C89.67 33.48 89.34 18.96 89 4 C60.29 4 31.58 4 2 4 C1.34 2.68 0.68 1.36 0 0 Z " fill="#515151" transform="translate(5,164)"/>
<path d="M0 0 C0.33 0.99 0.66 1.98 1 3 C0.34 3 -0.32 3 -1 3 C-1 3.66 -1 4.32 -1 5 C-1.66 5 -2.32 5 -3 5 C-8.16935414 20.50806242 -4.64471583 37.65692821 -5 54 C26.02 54 57.04 54 89 54 C85.63283775 57.36716225 84.50960334 57.35562011 79.94854736 57.40658569 C79.12247986 57.400513 78.29641235 57.39444031 77.4453125 57.38818359 C76.57187195 57.39344055 75.6984314 57.39869751 74.79852295 57.40411377 C71.9071675 57.41733324 69.01636119 57.4085688 66.125 57.3984375 C64.11865127 57.40045768 62.11230325 57.40336864 60.10595703 57.40713501 C55.89934301 57.411561 51.69291997 57.40511841 47.48632812 57.39111328 C42.08892617 57.3740213 36.69197171 57.38386101 31.29458618 57.40183067 C27.15108862 57.41266104 23.00769751 57.40922559 18.86419678 57.4014473 C16.8738398 57.39944322 14.88347321 57.4019118 12.89312744 57.40888596 C10.11338632 57.41648811 7.3343742 57.40491363 4.5546875 57.38818359 C3.31558624 57.39729263 3.31558624 57.39729263 2.05145264 57.40658569 C-3.58926517 57.34355588 -3.58926517 57.34355588 -5.67233276 55.60119057 C-7.86353861 52.9585569 -8.1235667 51.27127904 -8.11352539 47.91748047 C-8.11344986 47.07675995 -8.11337433 46.23603943 -8.11329651 45.36984253 C-8.10813522 44.46146637 -8.10297394 43.55309021 -8.09765625 42.6171875 C-8.0962413 41.68778351 -8.09482635 40.75837952 -8.09336853 39.80081177 C-8.08776053 36.82550876 -8.07520668 33.85028036 -8.0625 30.875 C-8.05748603 28.86067817 -8.05292295 26.84635516 -8.04882812 24.83203125 C-8.0377885 19.88799198 -8.02051849 14.94400865 -8 10 C-7.34 10 -6.68 10 -6 10 C-6 8.35 -6 6.7 -6 5 C-4.68 4.67 -3.36 4.34 -2 4 C-2 3.34 -2 2.68 -2 2 C-1.34 2 -0.68 2 0 2 C0 1.34 0 0.68 0 0 Z " fill="#7D7D7D" transform="translate(164,120)"/>
<path d="M0 0 C0.66 0.33 1.32 0.66 2 1 C4.45506384 1.11689939 6.88344118 1.17512803 9.33959961 1.18945312 C10.47397713 1.20189308 10.47397713 1.20189308 11.63127136 1.21458435 C13.27584159 1.23199938 14.92043684 1.24716222 16.56504631 1.26036072 C19.16627907 1.28136251 21.76738649 1.30838782 24.36854553 1.33703613 C29.89148236 1.39677737 35.4144773 1.44890633 40.9375 1.5 C47.33274098 1.55920364 53.72792023 1.62149625 60.12304878 1.69187927 C62.6883713 1.71847554 65.25369994 1.7392781 67.81907654 1.7598877 C69.38972267 1.7764907 70.96036598 1.79336254 72.53100586 1.81054688 C73.60415039 1.8168235 73.60415039 1.8168235 74.69897461 1.82322693 C77.73713142 1.86177885 80.09364583 2.03121528 83 3 C83 31.38 83 59.76 83 89 C82.01 89 81.02 89 80 89 C80 60.95 80 32.9 80 4 C52.94 4 25.88 4 -2 4 C-2 3.34 -2 2.68 -2 2 C-1.34 2 -0.68 2 0 2 C0 1.34 0 0.68 0 0 Z " fill="#939393" transform="translate(62,123)"/>
<path d="M0 0 C0.99 0.33 1.98 0.66 3 1 C1.02 1.99 1.02 1.99 -1 3 C-1 3.66 -1 4.32 -1 5 C-1.66 5 -2.32 5 -3 5 C-3 5.66 -3 6.32 -3 7 C24.06 7 51.12 7 79 7 C79 35.05 79 63.1 79 92 C64.48 92 49.96 92 35 92 C35 76.82 35 61.64 35 46 C35.33 46 35.66 46 36 46 C36 60.52 36 75.04 36 90 C49.86 90 63.72 90 78 90 C78 62.94 78 35.88 78 8 C50.94 8 23.88 8 -4 8 C-4.33 6.68 -4.66 5.36 -5 4 C-4.01 4 -3.02 4 -2 4 C-2 3.01 -2 2.02 -2 1 C-1.34 0.67 -0.68 0.34 0 0 Z " fill="#262626" transform="translate(63,120)"/>
<path d="M0 0 C0.33 0 0.66 0 1 0 C1 15.84 1 31.68 1 48 C1.99 48 2.98 48 4 48 C4 47.34 4 46.68 4 46 C4.66 46 5.32 46 6 46 C6.66 44.68 7.32 43.36 8 42 C8.99 42 9.98 42 11 42 C11 41.34 11 40.68 11 40 C11.66 40 12.32 40 13 40 C13 39.01 13 38.02 13 37 C13.66 37 14.32 37 15 37 C15 36.34 15 35.68 15 35 C15.66 35 16.32 35 17 35 C17 34.34 17 33.68 17 33 C17.99 33 18.98 33 20 33 C20 32.34 20 31.68 20 31 C20.66 31 21.32 31 22 31 C22 30.01 22 29.02 22 28 C22.66 28 23.32 28 24 28 C24 27.34 24 26.68 24 26 C24.66 26 25.32 26 26 26 C26 25.34 26 24.68 26 24 C26.99 24 27.98 24 29 24 C29.66 22.68 30.32 21.36 31 20 C31.99 20 32.98 20 34 20 C34 20.66 34 21.32 34 22 C33.34 22 32.68 22 32 22 C31.505 23.485 31.505 23.485 31 25 C30.34 25 29.68 25 29 25 C29 25.66 29 26.32 29 27 C28.34 27 27.68 27 27 27 C27 27.66 27 28.32 27 29 C26.34 29 25.68 29 25 29 C25 29.66 25 30.32 25 31 C24.34 31 23.68 31 23 31 C22.67 31.99 22.34 32.98 22 34 C21.34 34 20.68 34 20 34 C20 34.66 20 35.32 20 36 C19.34 36 18.68 36 18 36 C18 36.66 18 37.32 18 38 C17.34 38 16.68 38 16 38 C16 38.66 16 39.32 16 40 C15.34 40 14.68 40 14 40 C13.67 40.99 13.34 41.98 13 43 C12.34 43 11.68 43 11 43 C11 43.66 11 44.32 11 45 C10.34 45 9.68 45 9 45 C9 45.66 9 46.32 9 47 C8.34 47 7.68 47 7 47 C7 47.99 7 48.98 7 50 C5.68 50 4.36 50 3 50 C3 50.66 3 51.32 3 52 C1.35 51.34 -0.3 50.68 -2 50 C-2.05064489 43.36144258 -2.08571023 36.72293486 -2.10986328 30.08422852 C-2.11993058 27.82509499 -2.13358538 25.56597453 -2.15087891 23.30688477 C-2.17509508 20.06263001 -2.18647575 16.81854729 -2.1953125 13.57421875 C-2.20563507 12.56163498 -2.21595764 11.54905121 -2.22659302 10.50578308 C-2.22674408 9.56503433 -2.22689514 8.62428558 -2.22705078 7.6550293 C-2.231492 6.82674118 -2.23593323 5.99845306 -2.24050903 5.14506531 C-2 3 -2 3 0 0 Z " fill="#2B2B2B" transform="translate(158,37)"/>
<path d="M0 0 C-0.66 0 -1.32 0 -2 0 C-2.33 1.32 -2.66 2.64 -3 4 C-3.66 3.67 -4.32 3.34 -5 3 C-5 3.66 -5 4.32 -5 5 C-5.99 5 -6.98 5 -8 5 C-8.0825 5.78375 -8.165 6.5675 -8.25 7.375 C-9 10 -9 10 -11 11.125 C-11.66 11.41375 -12.32 11.7025 -13 12 C-13.33 12.99 -13.66 13.98 -14 15 C-15.94244949 17.21037356 -17.53120526 18.7722997 -20.1875 20.0625 C-22.36058256 20.9194894 -22.36058256 20.9194894 -23 24 C-24.94244949 26.21037356 -26.53120526 27.7722997 -29.1875 29.0625 C-31.36058256 29.9194894 -31.36058256 29.9194894 -32 33 C-34.475 33.495 -34.475 33.495 -37 34 C-37.0825 34.78375 -37.165 35.5675 -37.25 36.375 C-38 39 -38 39 -40 40.1875 C-40.66 40.455625 -41.32 40.72375 -42 41 C-42.33 41.66 -42.66 42.32 -43 43 C-43.66 43 -44.32 43 -45 43 C-43.125 38.25 -43.125 38.25 -42 36 C-41.34 36 -40.68 36 -40 36 C-40 35.34 -40 34.68 -40 34 C-38.625 32.375 -38.625 32.375 -37 31 C-36.34 31 -35.68 31 -35 31 C-35 30.34 -35 29.68 -35 29 C-34.34 29 -33.68 29 -33 29 C-33 28.34 -33 27.68 -33 27 C-32.34 27 -31.68 27 -31 27 C-31 26.34 -31 25.68 -31 25 C-29.625 23.375 -29.625 23.375 -28 22 C-27.34 22 -26.68 22 -26 22 C-26 21.34 -26 20.68 -26 20 C-25.34 20 -24.68 20 -24 20 C-24 19.34 -24 18.68 -24 18 C-23.34 18 -22.68 18 -22 18 C-22 17.34 -22 16.68 -22 16 C-19.625 13.375 -19.625 13.375 -17 11 C-16.34 11 -15.68 11 -15 11 C-15 10.34 -15 9.68 -15 9 C-14.34 9 -13.68 9 -13 9 C-13 8.34 -13 7.68 -13 7 C-10.625 4.375 -10.625 4.375 -8 2 C-7.34 2 -6.68 2 -6 2 C-6 1.34 -6 0.68 -6 0 C-3 -1 -3 -1 0 0 Z " fill="#8E8E8E" transform="translate(252,127)"/>
<path d="M0 0 C0.66 0 1.32 0 2 0 C2.02467759 5.37515933 2.04284928 10.75028585 2.05493164 16.12548828 C2.05996737 17.95492121 2.06679627 19.78435009 2.07543945 21.61376953 C2.08753824 24.23991898 2.09323583 26.86601532 2.09765625 29.4921875 C2.10281754 30.31306854 2.10797882 31.13394958 2.11329651 31.97970581 C2.11387171 37.77225659 2.11387171 37.77225659 1 40 C0.34 40 -0.32 40 -1 40 C-1.02464775 34.46411467 -1.04283496 28.928261 -1.05493164 23.39233398 C-1.05997244 21.5075627 -1.06680498 19.62279535 -1.07543945 17.73803711 C-1.08751617 15.03498364 -1.09323068 12.33198169 -1.09765625 9.62890625 C-1.10281754 8.78099014 -1.10797882 7.93307404 -1.11329651 7.0594635 C-1.11349195 5.03928932 -1.06206211 3.01922066 -1 1 C-0.67 0.67 -0.34 0.34 0 0 Z " fill="#2D2D2D" transform="translate(206,130)"/>
<path d="M0 0 C16.5 0 33 0 50 0 C49.67 1.65 49.34 3.3 49 5 C48.43835144 4.67468292 47.87670288 4.34936584 47.29803467 4.01419067 C44.72831041 2.88009535 43.02754151 2.75791644 40.23144531 2.77294922 C38.82043549 2.77317581 38.82043549 2.77317581 37.38092041 2.77340698 C36.37349792 2.78372955 35.36607544 2.79405212 34.328125 2.8046875 C32.77179352 2.80893234 32.77179352 2.80893234 31.184021 2.81326294 C27.87256299 2.82445135 24.56137616 2.84955373 21.25 2.875 C19.00391016 2.88503152 16.75781607 2.89415707 14.51171875 2.90234375 C9.00772009 2.9243863 3.50387942 2.95785068 -2 3 C-1.34 2.67 -0.68 2.34 0 2 C0 1.34 0 0.68 0 0 Z " fill="#363636" transform="translate(95,37)"/>
<path d="M0 0 C0.33 0 0.66 0 1 0 C1.33 15.51 1.66 31.02 2 47 C2.66 47.33 3.32 47.66 4 48 C4 48.66 4 49.32 4 50 C2.35 49.34 0.7 48.68 -1 48 C-1.02526945 41.3247966 -1.04283268 34.64960543 -1.05493164 27.97436523 C-1.05997325 25.70157409 -1.06680637 23.4287862 -1.07543945 21.15600586 C-1.08751261 17.89696449 -1.09322987 14.63796583 -1.09765625 11.37890625 C-1.10281754 10.35599991 -1.10797882 9.33309357 -1.11329651 8.27919006 C-1.11337204 7.33829025 -1.11344757 6.39739044 -1.11352539 5.42797852 C-1.115746 4.59524918 -1.11796661 3.76251984 -1.12025452 2.90455627 C-1 1 -1 1 0 0 Z " fill="#FBFBFB" transform="translate(157,39)"/>
<path d="M0 0 C0.33 0 0.66 0 1 0 C1.33 14.85 1.66 29.7 2 45 C1.01 45 0.02 45 -1 45 C-1.02527124 38.75204325 -1.04283344 32.50409959 -1.05493164 26.25610352 C-1.05997298 24.12881986 -1.06680591 22.00153969 -1.07543945 19.87426758 C-1.08751379 16.82372174 -1.09323014 13.77322155 -1.09765625 10.72265625 C-1.10281754 9.76537125 -1.10797882 8.80808624 -1.11329651 7.8217926 C-1.11337204 6.94095505 -1.11344757 6.06011749 -1.11352539 5.15258789 C-1.115746 4.37315323 -1.11796661 3.59371857 -1.12025452 2.79066467 C-1 1 -1 1 0 0 Z " fill="#666666" transform="translate(96,167)"/>
<path d="M0 0 C0.33 0 0.66 0 1 0 C1 15.84 1 31.68 1 48 C3.97 47.505 3.97 47.505 7 47 C7 47.99 7 48.98 7 50 C5.00045254 50.04254356 2.99958364 50.04080783 1 50 C0 49 0 49 -0.12025452 47.01951599 C-0.11803391 46.15125687 -0.11581329 45.28299774 -0.11352539 44.38842773 C-0.11344986 43.40748642 -0.11337433 42.4265451 -0.11329651 41.4158783 C-0.10813522 40.3492244 -0.10297394 39.2825705 -0.09765625 38.18359375 C-0.0962413 37.0974025 -0.09482635 36.01121124 -0.09336853 34.8921051 C-0.08775048 31.40720925 -0.07519492 27.92237658 -0.0625 24.4375 C-0.05748733 22.08138113 -0.05292402 19.72526126 -0.04882812 17.36914062 C-0.03777519 11.57940536 -0.02101951 5.78970719 0 0 Z " fill="#434343" transform="translate(158,37)"/>
<path d="M0 0 C0.33 0.99 0.66 1.98 1 3 C0.34 3 -0.32 3 -1 3 C-1 3.66 -1 4.32 -1 5 C-1.66 5 -2.32 5 -3 5 C-3.93789698 7.81369094 -4.14931982 9.643105 -4.20532227 12.56323242 C-4.2352401 13.94432442 -4.2352401 13.94432442 -4.26576233 15.35331726 C-4.28247482 16.34402725 -4.29918732 17.33473724 -4.31640625 18.35546875 C-4.33718735 19.37224197 -4.35796844 20.3890152 -4.37937927 21.43659973 C-4.44480048 24.68683063 -4.50372537 27.93714277 -4.5625 31.1875 C-4.60569227 33.38998238 -4.64930679 35.59245653 -4.69335938 37.79492188 C-4.80047427 43.19652853 -4.90225457 48.59821612 -5 54 C-5.33 54 -5.66 54 -6 54 C-6 37.83 -6 21.66 -6 5 C-4.68 4.67 -3.36 4.34 -2 4 C-2 3.34 -2 2.68 -2 2 C-1.34 2 -0.68 2 0 2 C0 1.34 0 0.68 0 0 Z " fill="#474747" transform="translate(164,120)"/>
<path d="M0 0 C-0.66 0 -1.32 0 -2 0 C-2.33 1.32 -2.66 2.64 -3 4 C-3.66 3.67 -4.32 3.34 -5 3 C-5 3.66 -5 4.32 -5 5 C-5.99 5 -6.98 5 -8 5 C-8.0825 5.78375 -8.165 6.5675 -8.25 7.375 C-9 10 -9 10 -11 11.125 C-11.66 11.41375 -12.32 11.7025 -13 12 C-13.33 12.99 -13.66 13.98 -14 15 C-14.99 15.33 -15.98 15.66 -17 16 C-17 15.34 -17 14.68 -17 14 C-16.34 14 -15.68 14 -15 14 C-15 12.35 -15 10.7 -15 9 C-14.34 9 -13.68 9 -13 9 C-13 8.34 -13 7.68 -13 7 C-10.625 4.375 -10.625 4.375 -8 2 C-7.34 2 -6.68 2 -6 2 C-6 1.34 -6 0.68 -6 0 C-3 -1 -3 -1 0 0 Z " fill="#9F9F9F" transform="translate(252,127)"/>
<path d="M0 0 C0.66 0 1.32 0 2 0 C2 0.99 2 1.98 2 3 C1.34 3 0.68 3 0 3 C0 3.66 0 4.32 0 5 C-0.66 5 -1.32 5 -2 5 C-2.0825 5.78375 -2.165 6.5675 -2.25 7.375 C-3 10 -3 10 -5 11.1875 C-5.66 11.455625 -6.32 11.72375 -7 12 C-7.33 12.66 -7.66 13.32 -8 14 C-8.66 14 -9.32 14 -10 14 C-8.125 9.25 -8.125 9.25 -7 7 C-6.34 7 -5.68 7 -5 7 C-5 6.34 -5 5.68 -5 5 C-3.625 3.375 -3.625 3.375 -2 2 C-1.34 2 -0.68 2 0 2 C0 1.34 0 0.68 0 0 Z " fill="#939393" transform="translate(217,156)"/>
<path d="M0 0 C-0.99 0.33 -1.98 0.66 -3 1 C-3 1.66 -3 2.32 -3 3 C-3.66 3 -4.32 3 -5 3 C-5 3.66 -5 4.32 -5 5 C-5.66 5 -6.32 5 -7 5 C-7.268125 5.639375 -7.53625 6.27875 -7.8125 6.9375 C-9 9 -9 9 -12 10 C-12 10.66 -12 11.32 -12 12 C-12.66 12 -13.32 12 -14 12 C-13.8125 9.6875 -13.8125 9.6875 -13 7 C-11.36368108 5.95107762 -9.69514137 4.95093297 -8 4 C-7.30251417 2.68252676 -6.63040043 1.35085807 -6 0 C-3 -1 -3 -1 0 0 Z " fill="#969696" transform="translate(98,90)"/>
<path d="M0 0 C0.99 0 1.98 0 3 0 C3 0.66 3 1.32 3 2 C2.34 2 1.68 2 1 2 C0.67 2.99 0.34 3.98 0 5 C-0.66 5 -1.32 5 -2 5 C-2 5.66 -2 6.32 -2 7 C-2.66 7 -3.32 7 -4 7 C-4 7.66 -4 8.32 -4 9 C-5.65 9.33 -7.3 9.66 -9 10 C-9 9.34 -9 8.68 -9 8 C-8.34 8 -7.68 8 -7 8 C-7 7.34 -7 6.68 -7 6 C-6.34 6 -5.68 6 -5 6 C-5 5.34 -5 4.68 -5 4 C-4.01 4 -3.02 4 -2 4 C-1.34 2.68 -0.68 1.36 0 0 Z " fill="#252525" transform="translate(189,57)"/>
<path d="M0 0 C0.99 0.33 1.98 0.66 3 1 C1.38405168 3.04119788 -0.2856382 5.04072937 -2 7 C-2.66 7 -3.32 7 -4 7 C-4 7.66 -4 8.32 -4 9 C-4.66 9 -5.32 9 -6 9 C-5.67 7.35 -5.34 5.7 -5 4 C-4.01 4 -3.02 4 -2 4 C-2 3.01 -2 2.02 -2 1 C-1.34 0.67 -0.68 0.34 0 0 Z " fill="#7F7F7F" transform="translate(72,111)"/>
<path d="M0 0 C0.99 0.33 1.98 0.66 3 1 C-0.30015998 5.13937592 -3.17324411 8.58662205 -8 11 C-7.75 8.625 -7.75 8.625 -7 6 C-5 4.875 -5 4.875 -3 4 C-2.67 3.01 -2.34 2.02 -2 1 C-1.34 0.67 -0.68 0.34 0 0 Z " fill="#676767" transform="translate(128,55)"/>
<path d="M0 0 C0.99 0 1.98 0 3 0 C3 0.66 3 1.32 3 2 C2.34 2 1.68 2 1 2 C0.731875 2.639375 0.46375 3.27875 0.1875 3.9375 C-1 6 -1 6 -4 7 C-4 7.66 -4 8.32 -4 9 C-4.66 9 -5.32 9 -6 9 C-5.75 6.625 -5.75 6.625 -5 4 C-3 2.8125 -3 2.8125 -1 2 C-0.67 1.34 -0.34 0.68 0 0 Z " fill="#8D8D8D" transform="translate(81,102)"/>
<path d="M0 0 C0.99 0 1.98 0 3 0 C3 0.66 3 1.32 3 2 C2.34 2 1.68 2 1 2 C0.731875 2.639375 0.46375 3.27875 0.1875 3.9375 C-1 6 -1 6 -4 7 C-4 7.66 -4 8.32 -4 9 C-4.66 9 -5.32 9 -6 9 C-5.75 6.625 -5.75 6.625 -5 4 C-3 2.8125 -3 2.8125 -1 2 C-0.67 1.34 -0.34 0.68 0 0 Z " fill="#8A8A8A" transform="translate(108,75)"/>
<path d="M0 0 C0.99 0.33 1.98 0.66 3 1 C2.34 1 1.68 1 1 1 C1 1.66 1 2.32 1 3 C0.34 3 -0.32 3 -1 3 C-1.268125 3.639375 -1.53625 4.27875 -1.8125 4.9375 C-3 7 -3 7 -6 8 C-6 8.66 -6 9.32 -6 10 C-6.66 9.67 -7.32 9.34 -8 9 C-6.87410807 5.6223242 -5.68056948 4.28636808 -3 2 C-2.01 2 -1.02 2 0 2 C0 1.34 0 0.68 0 0 Z " fill="#9A9A9A" transform="translate(250,86)"/>
<path d="M0 0 C0.33 1.32 0.66 2.64 1 4 C-1.97 6.475 -1.97 6.475 -5 9 C-5.66 8.67 -6.32 8.34 -7 8 C-6.67 7.34 -6.34 6.68 -6 6 C-5.34 6 -4.68 6 -4 6 C-4 5.34 -4 4.68 -4 4 C-3.34 4 -2.68 4 -2 4 C-2 3.34 -2 2.68 -2 2 C-1.34 2 -0.68 2 0 2 C0 1.34 0 0.68 0 0 Z " fill="#505050" transform="translate(200,84)"/>
<path d="M0 0 C0.66 0.33 1.32 0.66 2 1 C-3.14285714 7.57142857 -3.14285714 7.57142857 -7 9 C-6.8125 6.6875 -6.8125 6.6875 -6 4 C-3.5 2.25 -3.5 2.25 -1 1 C-0.67 0.67 -0.34 0.34 0 0 Z " fill="#787878" transform="translate(118,66)"/>
<path d="M0 0 C0.66 0.33 1.32 0.66 2 1 C1.67 1.99 1.34 2.98 1 4 C0.34 4 -0.32 4 -1 4 C-1.33 4.99 -1.66 5.98 -2 7 C-2.66 7 -3.32 7 -4 7 C-4 7.66 -4 8.32 -4 9 C-4.66 9 -5.32 9 -6 9 C-6 8.01 -6 7.02 -6 6 C-5.34 6 -4.68 6 -4 6 C-4 5.34 -4 4.68 -4 4 C-3.34 4 -2.68 4 -2 4 C-2 3.34 -2 2.68 -2 2 C-1.34 2 -0.68 2 0 2 C0 1.34 0 0.68 0 0 Z " fill="#252525" transform="translate(200,46)"/>
<path d="M0 0 C0.66 0 1.32 0 2 0 C1.34 1.32 0.68 2.64 0 4 C-0.66 4 -1.32 4 -2 4 C-2 4.66 -2 5.32 -2 6 C-2.66 6 -3.32 6 -4 6 C-4 6.66 -4 7.32 -4 8 C-5.65 8.66 -7.3 9.32 -9 10 C-8.34 9.01 -7.68 8.02 -7 7 C-6.34 7 -5.68 7 -5 7 C-5 6.34 -5 5.68 -5 5 C-4.34 5 -3.68 5 -3 5 C-3 4.34 -3 3.68 -3 3 C-2.34 3 -1.68 3 -1 3 C-0.67 2.01 -0.34 1.02 0 0 Z " fill="#767676" transform="translate(174,110)"/>
<path d="M0 0 C0.66 0.33 1.32 0.66 2 1 C1 3 1 3 -1 3.9375 C-3.34608221 4.8891846 -3.34608221 4.8891846 -4 8 C-4.99 8.33 -5.98 8.66 -7 9 C-7 8.34 -7 7.68 -7 7 C-6.34 7 -5.68 7 -5 7 C-5 5.35 -5 3.7 -5 2 C-3.35 2 -1.7 2 0 2 C0 1.34 0 0.68 0 0 Z " fill="#606060" transform="translate(224,152)"/>
<path d="M0 0 C0.66 0.33 1.32 0.66 2 1 C1 3 1 3 -1 3.9375 C-3.34608221 4.8891846 -3.34608221 4.8891846 -4 8 C-4.99 8.33 -5.98 8.66 -7 9 C-7 8.34 -7 7.68 -7 7 C-6.34 7 -5.68 7 -5 7 C-5 5.35 -5 3.7 -5 2 C-3.35 2 -1.7 2 0 2 C0 1.34 0 0.68 0 0 Z " fill="#5C5C5C" transform="translate(242,134)"/>
<path d="M0 0 C0.99 0.33 1.98 0.66 3 1 C1.02 1.99 1.02 1.99 -1 3 C-1 3.66 -1 4.32 -1 5 C-1.66 5 -2.32 5 -3 5 C-3 5.66 -3 6.32 -3 7 C-3.66 7 -4.32 7 -5 7 C-5 6.01 -5 5.02 -5 4 C-4.01 4 -3.02 4 -2 4 C-2 3.01 -2 2.02 -2 1 C-1.34 0.67 -0.68 0.34 0 0 Z " fill="#525252" transform="translate(63,120)"/>
<path d="M0 0 C0 0.66 0 1.32 0 2 C-0.66 2 -1.32 2 -2 2 C-2.33 2.99 -2.66 3.98 -3 5 C-3.66 5 -4.32 5 -5 5 C-5 5.66 -5 6.32 -5 7 C-5.66 7 -6.32 7 -7 7 C-7 6.01 -7 5.02 -7 4 C-6.34 4 -5.68 4 -5 4 C-5 3.34 -5 2.68 -5 2 C-2 0 -2 0 0 0 Z " fill="#353535" transform="translate(183,66)"/>
<path d="M0 0 C-0.66 0 -1.32 0 -2 0 C-2.33 1.32 -2.66 2.64 -3 4 C-3.66 3.67 -4.32 3.34 -5 3 C-5.33 3.66 -5.66 4.32 -6 5 C-6 3.35 -6 1.7 -6 0 C-3 -1 -3 -1 0 0 Z " fill="#696969" transform="translate(252,127)"/>
<path d="M0 0 C0.33 0.99 0.66 1.98 1 3 C0.01 3.33 -0.98 3.66 -2 4 C-2 4.66 -2 5.32 -2 6 C-2.66 6 -3.32 6 -4 6 C-3.67 4.35 -3.34 2.7 -3 1 C-2.01 0.67 -1.02 0.34 0 0 Z " fill="#7F7F7F" transform="translate(88,96)"/>
<path d="M0 0 C0.99 0.33 1.98 0.66 3 1 C2.34 1 1.68 1 1 1 C0.5978125 2.2065625 0.5978125 2.2065625 0.1875 3.4375 C-0.4003125 4.7059375 -0.4003125 4.7059375 -1 6 C-1.99 6.33 -2.98 6.66 -4 7 C-4 6.01 -4 5.02 -4 4 C-3.34 4 -2.68 4 -2 4 C-1.34 2.68 -0.68 1.36 0 0 Z " fill="#646464" transform="translate(135,48)"/>
</svg>
